<svg xmlns="http://www.w3.org/2000/svg" viewBox="0 0 79 79"><defs><style>.cls-1{fill:#fff;}.cls-2{fill:#ef7009;}.cls-3{fill:none;}</style></defs><title>Asset 4</title><g id="Layer_2" data-name="Layer 2"><g id="Layer_1-2" data-name="Layer 1"><path class="cls-1" d="M18.46,27.06l-12.55-7C13.28,5.18,31.71-2.93,48.76,1a39.21,39.21,0,0,1,.53,76.21C32.17,81.37,13.73,73.47,6,58.35l12.5-7.18c5.51,8,12.85,12.73,22.9,12.14A23.27,23.27,0,0,0,58,55.13a24.34,24.34,0,0,0-2.59-34.54C46.94,13.29,29.91,10.71,18.46,27.06Z"/><path class="cls-2" d="M18.88,50.42c-3.61-7.62-3.56-14.79,0-22.58L39,39Z"/><circle class="cls-3" cx="39.5" cy="39.5" r="39.5"/><circle class="cls-3" cx="42.46" cy="15.05"/></g></g></svg>